<svg width="175" height="33" viewBox="0 0 175 33" fill="none" xmlns="http://www.w3.org/2000/svg">
<g filter="url(#filter0_d_12_337)">
<path d="M21.4844 0.480469C24.1146 0.480469 26.556 0.708333 28.8086 1.16406C31.0742 1.60677 33.151 2.17969 35.0391 2.88281V9.44531C34.2969 9.02865 33.457 8.625 32.5195 8.23438C31.5951 7.84375 30.5859 7.4987 29.4922 7.19922C28.3984 6.89974 27.2266 6.65885 25.9766 6.47656C24.7266 6.29427 23.4115 6.20312 22.0312 6.20312C20.3125 6.20312 18.8151 6.32682 17.5391 6.57422C16.263 6.82161 15.1693 7.15365 14.2578 7.57031C13.3464 7.98698 12.5977 8.47526 12.0117 9.03516C11.4258 9.58203 10.9635 10.168 10.625 10.793C10.2865 11.418 10.0521 12.056 9.92188 12.707C9.79167 13.3581 9.72656 13.9896 9.72656 14.6016C9.72656 15.1354 9.77865 15.7148 9.88281 16.3398C10 16.9648 10.2083 17.5898 10.5078 18.2148C10.8203 18.8398 11.25 19.4388 11.7969 20.0117C12.3438 20.5846 13.0534 21.0924 13.9258 21.5352C14.8112 21.9779 15.8724 22.3359 17.1094 22.6094C18.3464 22.8698 19.8177 23 21.5234 23C22.3828 23 23.1315 22.974 23.7695 22.9219C24.4076 22.8698 24.987 22.7982 25.5078 22.707C26.0417 22.6159 26.5365 22.5052 26.9922 22.375C27.4609 22.2448 27.9427 22.1081 28.4375 21.9648V18.7227H20.3125V12.8438H35.6836V26.5547C34.7201 26.8802 33.6393 27.1797 32.4414 27.4531C31.2565 27.7135 30.026 27.9349 28.75 28.1172C27.487 28.3125 26.2174 28.4622 24.9414 28.5664C23.6654 28.6706 22.4609 28.7227 21.3281 28.7227C19.5703 28.7227 17.8841 28.6055 16.2695 28.3711C14.6549 28.1367 13.1445 27.7786 11.7383 27.2969C10.3451 26.8021 9.06901 26.1771 7.91016 25.4219C6.76432 24.6667 5.78125 23.7682 4.96094 22.7266C4.15365 21.6849 3.52214 20.4935 3.06641 19.1523C2.6237 17.7982 2.40234 16.2812 2.40234 14.6016C2.40234 12.9349 2.63672 11.4245 3.10547 10.0703C3.57422 8.71615 4.22526 7.51823 5.05859 6.47656C5.90495 5.4349 6.91406 4.53646 8.08594 3.78125C9.27083 3.02604 10.5664 2.40755 11.9727 1.92578C13.3919 1.43099 14.9023 1.06641 16.5039 0.832031C18.1185 0.597656 19.7786 0.480469 21.4844 0.480469ZM43.4961 28V1.16406H50.7422V28H43.4961ZM74.1992 7.00391V28H66.9531V7.00391H55.5664V1.16406H85.6055V7.00391H74.1992ZM124.531 28V9.15234L114.57 28H107.617L97.6562 9.15234V28H90.4102V1.16406H100.254L111.094 21.4766L121.934 1.16406H131.738V28H124.531ZM170.059 26.6719C167.858 27.401 165.658 27.9219 163.457 28.2344C161.27 28.5599 159.03 28.7227 156.738 28.7227C153.809 28.7227 151.198 28.4102 148.906 27.7852C146.628 27.1471 144.707 26.2292 143.145 25.0312C141.582 23.8333 140.391 22.3685 139.57 20.6367C138.75 18.9049 138.34 16.9453 138.34 14.7578C138.34 12.7266 138.75 10.8451 139.57 9.11328C140.404 7.36849 141.576 5.85807 143.086 4.58203C144.609 3.29297 146.445 2.29036 148.594 1.57422C150.742 0.845052 153.138 0.480469 155.781 0.480469C158.216 0.480469 160.443 0.8125 162.461 1.47656C164.492 2.1276 166.23 3.09766 167.676 4.38672C169.134 5.67578 170.26 7.26432 171.055 9.15234C171.862 11.0404 172.266 13.2148 172.266 15.6758V17.4727H145.82C146.055 18.319 146.439 19.0938 146.973 19.7969C147.52 20.5 148.255 21.099 149.18 21.5938C150.104 22.0885 151.237 22.4727 152.578 22.7461C153.932 23.0195 155.547 23.1562 157.422 23.1562C158.75 23.1562 160.052 23.0781 161.328 22.9219C162.604 22.7526 163.796 22.5378 164.902 22.2773C166.009 22.0039 167.005 21.7044 167.891 21.3789C168.789 21.0534 169.512 20.7279 170.059 20.4023V26.6719ZM165.059 12.1602C164.993 11.4961 164.792 10.8125 164.453 10.1094C164.128 9.39323 163.607 8.7487 162.891 8.17578C162.174 7.60286 161.237 7.13411 160.078 6.76953C158.919 6.39193 157.474 6.20312 155.742 6.20312C154.115 6.20312 152.708 6.40495 151.523 6.80859C150.339 7.21224 149.342 7.71354 148.535 8.3125C147.741 8.91146 147.122 9.55599 146.68 10.2461C146.237 10.9362 145.951 11.5742 145.82 12.1602H165.059Z" fill="white"/>
</g>
<defs>
<filter id="filter0_d_12_337" x="0.402344" y="0.480469" width="173.863" height="32.2422" filterUnits="userSpaceOnUse" color-interpolation-filters="sRGB">
<feFlood flood-opacity="0" result="BackgroundImageFix"/>
<feColorMatrix in="SourceAlpha" type="matrix" values="0 0 0 0 0 0 0 0 0 0 0 0 0 0 0 0 0 0 127 0" result="hardAlpha"/>
<feOffset dy="2"/>
<feGaussianBlur stdDeviation="1"/>
<feComposite in2="hardAlpha" operator="out"/>
<feColorMatrix type="matrix" values="0 0 0 0 1 0 0 0 0 1 0 0 0 0 1 0 0 0 0.25 0"/>
<feBlend mode="normal" in2="BackgroundImageFix" result="effect1_dropShadow_12_337"/>
<feBlend mode="normal" in="SourceGraphic" in2="effect1_dropShadow_12_337" result="shape"/>
</filter>
</defs>
</svg>
